<svg width="587" height="618" viewBox="0 0 587 618" fill="none" xmlns="http://www.w3.org/2000/svg">
<path d="M579.016 186.178C550.065 159.431 510.017 118.585 477.399 89.617L475.469 88.2652C472.257 85.6848 468.637 83.6612 464.757 82.2784C386.107 67.6011 20.0726 -0.86085 12.9314 0.00820061C10.9304 0.288615 9.01769 1.01455 7.3342 2.13255L5.50065 3.58097C3.24292 5.87527 1.52813 8.64699 0.482514 11.6921L0 12.9474V19.8033V20.8654C41.2066 135.677 203.91 511.783 235.949 600.04C237.879 606.026 241.546 617.421 248.398 618H249.942C253.609 618 269.242 597.336 269.242 597.336C269.242 597.336 548.714 258.213 576.99 222.099C580.65 217.651 583.881 212.866 586.64 207.808C587.344 203.851 587.012 199.779 585.676 195.988C584.34 192.197 582.045 188.818 579.016 186.178ZM340.944 225.672L460.221 126.697L530.186 191.199L340.944 225.672ZM294.623 219.202L89.265 50.7994L421.524 112.116L294.623 219.202ZM313.151 263.331L523.334 229.438L283.042 519.121L313.151 263.331ZM61.3757 67.6011L277.445 251.067L246.178 519.314L61.3757 67.6011Z" fill="#FF060A"/>
</svg>
